<svg width="70" height="70" viewBox="0 0 70 70" fill="none" xmlns="http://www.w3.org/2000/svg">
<circle cx="35" cy="35" r="35" fill="url(#paint0_linear)"/>
<path d="M27.8399 20.0269C28.4429 19.4028 29.4466 19.4028 30.0707 20.0269C30.6737 20.63 30.6737 21.6336 30.0707 22.2352L18.7592 33.5467H56.0855C56.9556 33.5481 57.6472 34.2397 57.6472 35.1098C57.6472 35.9799 56.9556 36.694 56.0855 36.694H18.7592L30.0707 47.9844C30.6737 48.6085 30.6737 49.6136 30.0707 50.2152C29.4466 50.8393 28.4415 50.8393 27.8399 50.2152L13.8506 36.2259C13.2265 35.6229 13.2265 34.6192 13.8506 34.0176L27.8399 20.0269Z" fill="white"/>
<defs>
<linearGradient id="paint0_linear" x1="35" y1="0" x2="35" y2="70" gradientUnits="userSpaceOnUse">
<stop stop-color="#170C9E"/>
<stop offset="1" stop-color="#E633EA"/>
</linearGradient>
</defs>
</svg>
