<svg width="32" height="32" viewBox="0 0 32 32" fill="none" xmlns="http://www.w3.org/2000/svg">
<g clip-path="url(#clip0)">
<path d="M3.07137 11.1788C3.47616 11.4645 4.69637 12.3128 6.73204 13.7235C8.76778 15.1341 10.3273 16.2203 11.4106 16.982C11.5297 17.0655 11.7825 17.2471 12.1694 17.5268C12.5563 17.8068 12.8778 18.033 13.1336 18.2056C13.3896 18.3781 13.6991 18.5716 14.0623 18.7858C14.4255 18.9998 14.7678 19.1608 15.0892 19.2674C15.4107 19.3749 15.7083 19.4281 15.982 19.4281H16H16.018C16.2918 19.4281 16.5895 19.3748 16.911 19.2674C17.2323 19.1608 17.5749 18.9996 17.9377 18.7858C18.3007 18.5713 18.6102 18.378 18.8662 18.2056C19.1222 18.033 19.4435 17.8068 19.8305 17.5268C20.2173 17.2468 20.4705 17.0655 20.5895 16.982C21.6845 16.2203 24.4705 14.2857 28.9465 11.1784C29.8155 10.5716 30.5416 9.83927 31.1248 8.98208C31.7085 8.12526 32 7.22642 32 6.28605C32 5.50022 31.7171 4.82754 31.1516 4.26807C30.5861 3.70847 29.9164 3.42883 29.1428 3.42883H2.85702C1.94042 3.42883 1.23503 3.73831 0.740979 4.35726C0.246993 4.97634 0 5.75015 0 6.67864C0 7.42863 0.327489 8.24135 0.982155 9.1163C1.63676 9.99131 2.33339 10.6789 3.07137 11.1788Z" fill="#F3F3F3"/>
<path d="M30.214 13.0893C26.3097 15.7319 23.345 17.7856 21.3215 19.2501C20.6429 19.7499 20.0925 20.1401 19.6697 20.4196C19.247 20.6994 18.6848 20.9851 17.9822 21.2766C17.28 21.5686 16.6255 21.7141 16.0182 21.7141H16H15.9821C15.375 21.7141 14.7201 21.5686 14.0178 21.2766C13.3156 20.9851 12.753 20.6994 12.3304 20.4196C11.9079 20.1401 11.3572 19.7499 10.6787 19.2501C9.07149 18.0716 6.11321 16.0177 1.80375 13.0893C1.12501 12.6372 0.52382 12.119 0 11.5358V25.7139C0 26.5001 0.279642 27.1724 0.839237 27.732C1.39871 28.2917 2.07145 28.5715 2.85721 28.5715H29.143C29.9286 28.5715 30.6013 28.2917 31.1608 27.732C31.7205 27.1723 32 26.5002 32 25.7139V11.5358C31.488 12.1069 30.893 12.6251 30.214 13.0893Z" fill="#F3F3F3"/>
</g>
<defs>
<clipPath id="clip0">
<rect width="32" height="32" fill="white"/>
</clipPath>
</defs>
</svg>
