<svg width="30" height="30" viewBox="0 0 30 30" fill="none" xmlns="http://www.w3.org/2000/svg">
<path d="M4.07925 27.6195C4.07925 27.6195 4.05261 28.2901 4.70768 28.2901C5.52263 28.2901 12.2699 28.2813 12.2699 28.2813L12.281 22.0847C12.281 22.0847 12.1744 21.0633 13.1659 21.0633H16.3035C17.476 21.0633 17.4038 22.0847 17.4038 22.0847L17.3905 28.2613C17.3905 28.2613 23.788 28.2613 24.7928 28.2613C25.6244 28.2613 25.5867 27.4263 25.5867 27.4263V16.0026L15.1544 6.72278L4.07925 16.0026C4.07925 16.0026 4.07925 27.6195 4.07925 27.6195Z" fill="#F3F3F3"/>
<path d="M0 15.1388C0 15.1388 0.940414 16.8719 2.99112 15.1388L15.2465 4.7709L26.7369 15.0744C29.1107 16.7864 30 15.0744 30 15.0744L15.2465 1.70984L0 15.1388Z" fill="#F3F3F3"/>
<path d="M26.458 4.74646H23.5024L23.5147 8.33047L26.458 10.8275V4.74646Z" fill="#F3F3F3"/>
</svg>
