<svg width="155" height="94" viewBox="0 0 155 94" fill="none" xmlns="http://www.w3.org/2000/svg">
<path d="M57.0859 37.8721V42.5352L97.9062 42.5352V37.8721H101.617V47.0762L53.375 47.0762V37.8721H57.0859Z" fill="#F3F3F3"/>
<path d="M65.2144 52.3511C67.0535 52.3511 68.8195 52.5952 70.5122 53.0835C72.2049 53.5799 73.743 54.3164 75.1265 55.293C76.5099 56.2695 77.4865 57.2827 78.0562 58.3325L76.5669 58.7964C75.6554 57.6082 74.2638 56.6317 72.3921 55.8667C70.5203 55.1099 68.4248 54.6948 66.1055 54.6216L65.0679 54.6094C61.9266 54.6094 59.2004 55.1831 56.8892 56.3306C55.5057 57.0223 54.4233 57.8442 53.6421 58.7964L52.2627 58.3325C52.8649 57.2502 53.874 56.2166 55.29 55.2319C58.057 53.3114 61.3651 52.3511 65.2144 52.3511Z" fill="#F3F3F3"/>
<path d="M94.2144 52.3511C96.0535 52.3511 97.8195 52.5952 99.5122 53.0835C101.205 53.5799 102.743 54.3164 104.126 55.293C105.51 56.2695 106.486 57.2827 107.056 58.3325L105.567 58.7964C104.655 57.6082 103.264 56.6317 101.392 55.8667C99.5203 55.1099 97.4248 54.6948 95.1055 54.6216L94.0679 54.6094C90.9266 54.6094 88.2004 55.1831 85.8892 56.3306C84.5057 57.0223 83.4233 57.8442 82.6421 58.7964L81.2627 58.3325C81.8649 57.2502 82.874 56.2166 84.29 55.2319C87.057 53.3114 90.3651 52.3511 94.2144 52.3511Z" fill="#F3F3F3"/>
<path d="M78.2144 52.3511C80.0535 52.3511 81.8195 52.5952 83.5122 53.0835C85.2049 53.5799 86.743 54.3164 88.1265 55.293C89.5099 56.2695 90.4865 57.2827 91.0562 58.3325L89.5669 58.7964C88.6554 57.6082 87.2638 56.6317 85.3921 55.8667C83.5203 55.1099 81.4248 54.6948 79.1055 54.6216L78.0679 54.6094C74.9266 54.6094 72.2004 55.1831 69.8892 56.3306C68.5057 57.0223 67.4233 57.8442 66.6421 58.7964L65.2627 58.3325C65.8649 57.2502 66.874 56.2166 68.29 55.2319C71.057 53.3114 74.3651 52.3511 78.2144 52.3511Z" fill="#F3F3F3"/>
<path d="M44.9805 72.9355C42.0996 72.1217 39.9268 70.779 38.4619 68.9072C37.0133 67.0518 36.2891 64.5941 36.2891 61.5342V56.6758C36.2891 52.7207 34.5638 50.7432 31.1133 50.7432V47.2031C34.5638 47.2031 36.2891 45.2337 36.2891 41.2949V36.2168C36.3216 33.2383 37.0459 30.8376 38.4619 29.0146C39.8942 27.1755 42.0671 25.8408 44.9805 25.0107L45.9082 27.8184C42.5065 28.9089 40.8057 31.749 40.8057 36.3389V41.2705C40.8057 44.9652 39.4466 47.5368 36.7285 48.9854C39.4466 50.4502 40.8057 53.0462 40.8057 56.7734V61.8027C40.8545 66.2786 42.5553 69.0537 45.9082 70.1279L44.9805 72.9355ZM108.97 70.1279C112.274 69.07 113.983 66.3763 114.097 62.0469V56.6758C114.097 52.916 115.57 50.3525 118.516 48.9854C115.57 47.6507 114.097 45.0872 114.097 41.2949V36.3389C114.097 31.749 112.396 28.9089 108.994 27.8184L109.922 25.0107C112.803 25.8245 114.967 27.151 116.416 28.9902C117.865 30.8132 118.597 33.2301 118.613 36.2412V41.3682C118.613 45.2581 120.339 47.2031 123.789 47.2031V50.7432C120.339 50.7432 118.613 52.7207 118.613 56.6758V61.6074C118.613 64.6673 117.873 67.1169 116.392 68.9561C114.927 70.7952 112.77 72.1217 109.922 72.9355L108.97 70.1279Z" fill="#F3F3F3"/>
<path d="M61 43V51.5" stroke="#F3F3F3" stroke-width="4"/>
<path d="M94 43V51.5" stroke="#F3F3F3" stroke-width="4"/>
</svg>
