<svg width="26" height="26" viewBox="0 0 26 26" fill="none" xmlns="http://www.w3.org/2000/svg">
<g clip-path="url(#clip0)">
<path d="M25.9169 11.5026C25.8617 11.3704 25.7826 11.2502 25.6818 11.1494L22.4329 7.90049C22.0094 7.47799 21.3247 7.47799 20.9011 7.90049C20.4775 8.32406 20.4775 9.00981 20.9011 9.43231L22.3019 10.8331H16.2503C15.6512 10.8331 15.167 11.3184 15.167 11.9164C15.167 12.5144 15.6512 12.9997 16.2503 12.9997H22.3018L20.9011 14.4004C20.4775 14.824 20.4775 15.5098 20.9011 15.9323C21.1123 16.1446 21.3896 16.2497 21.667 16.2497C21.9444 16.2497 22.2217 16.1446 22.4329 15.9323L25.6818 12.6833C25.7826 12.5836 25.8617 12.4634 25.9169 12.3301C26.0263 12.0659 26.0263 11.7669 25.9169 11.5026Z" fill="#F3F3F3"/>
<path d="M18.4171 15.1667C17.8181 15.1667 17.3338 15.652 17.3338 16.25V21.6667H13.0005V4.33332C13.0005 3.85557 12.6863 3.43307 12.2281 3.2955L8.46562 2.16668H17.3338V7.58337C17.3338 8.18137 17.8181 8.66668 18.4171 8.66668C19.0162 8.66668 19.5004 8.18137 19.5004 7.58337V1.08337C19.5004 0.485316 19.0162 0 18.4171 0H1.0838C1.0448 0 1.01012 0.01625 0.972238 0.0205664C0.921305 0.026 0.874738 0.0346328 0.825988 0.0465664C0.712238 0.0758164 0.609305 0.12025 0.512922 0.180883C0.489105 0.196066 0.459855 0.197133 0.437105 0.214449C0.428371 0.221 0.425121 0.232934 0.416437 0.239434C0.298371 0.332566 0.199805 0.446316 0.128305 0.58175C0.113121 0.611 0.109871 0.642434 0.0979883 0.67275C0.0633047 0.755066 0.0254219 0.83525 0.0124219 0.92625C0.00698828 0.95875 0.0167383 0.989066 0.0156719 1.0205C0.0146055 1.04218 0.000488281 1.06168 0.000488281 1.08332V22.75C0.000488281 23.2667 0.365555 23.7109 0.871488 23.8117L11.7048 25.9784C11.7752 25.9936 11.8467 26 11.9171 26C12.1652 26 12.4089 25.9145 12.6039 25.7541C12.8542 25.5483 13.0004 25.2417 13.0004 24.9167V23.8334H18.4171C19.0162 23.8334 19.5004 23.3481 19.5004 22.7501V16.25C19.5004 15.652 19.0162 15.1667 18.4171 15.1667Z" fill="#F3F3F3"/>
</g>
<defs>
<clipPath id="clip0">
<rect width="26" height="26" fill="white"/>
</clipPath>
</defs>
</svg>
