<svg width="60" height="60" viewBox="0 0 60 60" fill="none" xmlns="http://www.w3.org/2000/svg">
<path d="M38.6301 30.9589C38.0822 30.411 38.0822 29.589 38.6301 29.0411L59.1781 8.49315C59.726 7.94521 60 7.12329 60 6.57534C60 6.0274 59.726 5.20548 59.1781 4.65753L55.3425 0.821918C54.7945 0.273973 53.9726 0 53.4247 0C52.6027 0 52.0548 0.273973 51.5068 0.821918L30.9589 21.3699C30.411 21.9178 29.589 21.9178 29.0411 21.3699L8.49315 0.821918C7.94521 0.273973 7.12329 0 6.57534 0C6.0274 0 5.20548 0.273973 4.65753 0.821918L0.821918 4.65753C0.273973 5.20548 0 6.0274 0 6.57534C0 7.12329 0.273973 7.94521 0.821918 8.49315L21.3699 29.0411C21.9178 29.589 21.9178 30.411 21.3699 30.9589L0.821918 51.5068C0.273973 52.0548 0 52.8767 0 53.4247C0 53.9726 0.273973 54.7945 0.821918 55.3425L4.65753 59.1781C5.20548 59.726 6.0274 60 6.57534 60C7.12329 60 7.94521 59.726 8.49315 59.1781L29.0411 38.6301C29.589 38.0822 30.411 38.0822 30.9589 38.6301L51.5068 59.1781C52.0548 59.726 52.8767 60 53.4247 60C53.9726 60 54.7945 59.726 55.3425 59.1781L59.1781 55.3425C59.726 54.7945 60 53.9726 60 53.4247C60 52.8767 59.726 52.0548 59.1781 51.5068L38.6301 30.9589Z" fill="#F3F3F3"/>
</svg>
