<svg width="26" height="26" viewBox="0 0 26 26" fill="none" xmlns="http://www.w3.org/2000/svg">
<g clip-path="url(#clip0)">
<path d="M25.5941 11.3739C25.3848 11.2426 23.7451 10.2602 23.0933 9.9621L22.2858 8.01251C22.5257 7.36785 22.9841 5.55938 23.0558 5.24586C23.1222 4.95519 23.0346 4.6508 22.8237 4.43996L21.5609 3.17719C21.3501 2.96634 21.0456 2.87869 20.755 2.94512C20.5173 2.9995 18.6615 3.46461 17.9884 3.71516L16.0387 2.90759C15.7534 2.284 14.8004 0.683018 14.6269 0.40682C14.4684 0.154285 14.1911 0.000976562 13.893 0.000976562H12.107C11.8088 0.000976562 11.5315 0.154285 11.373 0.40682C11.2416 0.616089 10.2593 2.25586 9.96118 2.90759L8.01159 3.71516C7.36692 3.47522 5.55845 3.01682 5.24493 2.94512C4.95426 2.87874 4.64988 2.96639 4.43903 3.17719L3.17621 4.44001C2.96537 4.65085 2.87772 4.95524 2.94414 5.24591C2.99853 5.48367 3.46363 7.33941 3.71418 8.01257L2.90661 9.96216C2.28302 10.2474 0.682042 11.2005 0.405843 11.374C0.153308 11.5325 0 11.8097 0 12.1079V13.8939C0 14.1921 0.153308 14.4693 0.405843 14.6279C0.615112 14.7592 2.25489 15.7416 2.90661 16.0397L3.71418 17.9893C3.47424 18.634 3.01584 20.4424 2.94414 20.7559C2.87777 21.0466 2.96537 21.351 3.17621 21.5618L4.43903 22.8247C4.64988 23.0355 4.95436 23.1232 5.24493 23.0567C5.48269 23.0023 7.33844 22.5372 8.01159 22.2867L9.96118 23.0943C10.2465 23.7179 11.1995 25.3188 11.373 25.595C11.5315 25.8476 11.8088 26.0009 12.107 26.0009H13.893C14.1911 26.0009 14.4684 25.8476 14.627 25.595C14.7583 25.3858 15.7406 23.746 16.0388 23.0943L17.9884 22.2867C18.633 22.5266 20.4415 22.985 20.755 23.0567C21.0458 23.1233 21.3501 23.0355 21.5609 22.8247L22.8237 21.5618C23.0346 21.351 23.1222 21.0466 23.0558 20.7559C23.0014 20.5182 22.5363 18.6624 22.2858 17.9893L23.0933 16.0397C23.7169 15.7544 25.3179 14.8013 25.5941 14.6279C25.8466 14.4693 26 14.1921 26 13.8939V12.1079C26 11.8097 25.8466 11.5325 25.5941 11.3739ZM13 18.6683C9.87495 18.6683 7.33254 16.1259 7.33254 13.0009C7.33254 9.87588 9.87495 7.33352 13 7.33352C16.125 7.33352 18.6674 9.87593 18.6674 13.001C18.6674 16.126 16.125 18.6683 13 18.6683Z" fill="#F3F3F3"/>
</g>
<defs>
<clipPath id="clip0">
<rect width="26" height="26" fill="white"/>
</clipPath>
</defs>
</svg>
