<svg width="68" height="68" viewBox="0 0 68 68" fill="none" xmlns="http://www.w3.org/2000/svg">
<circle cx="34" cy="34" r="34" fill="url(#paint0_linear)"/>
<path d="M16.9358 22.3762C16.9451 21.757 17.445 21.257 18.0643 21.2477H50.0368C50.6546 21.2603 51.1527 21.758 51.1653 22.3762V29.2294H49.5139C48.8359 29.2251 48.1843 29.4906 47.7023 29.9673C47.2207 30.4439 46.948 31.0929 46.9451 31.7706V32.2569H21.0642V31.7706C21.061 31.0929 20.7886 30.4439 20.3066 29.9673C19.825 29.4906 19.1731 29.2251 18.4954 29.2294H16.9358V22.3762ZM21.0642 33.7248H46.9358V37.1193H21.0642V33.7248ZM20.422 46.7523H15.8349V45.7431H20.422V46.7523ZM52.0734 46.7523H47.4862V45.7431H52.0734V46.7523ZM54 44.2752H14V31.7706C14.0018 31.4817 14.1193 31.2058 14.3265 31.004C14.5333 30.8023 14.8121 30.6919 15.1009 30.6973H18.4954C18.7843 30.6919 19.0631 30.8023 19.2699 31.004C19.477 31.2058 19.5945 31.4817 19.5963 31.7706V37.8256C19.5953 38.236 19.9203 38.5728 20.3303 38.5872H47.6697C48.0797 38.5728 48.4047 38.236 48.4037 37.8256V31.7706C48.4055 31.4817 48.523 31.2058 48.7301 31.004C48.9369 30.8023 49.2157 30.6919 49.5046 30.6973H52.8991C53.1879 30.6919 53.4667 30.8023 53.6735 31.004C53.8807 31.2058 53.9982 31.4817 54 31.7706V44.2752Z" fill="white"/>
<defs>
<linearGradient id="paint0_linear" x1="34" y1="0" x2="34" y2="68" gradientUnits="userSpaceOnUse">
<stop stop-color="#E633EA"/>
<stop offset="1" stop-color="#170C9E"/>
</linearGradient>
</defs>
</svg>
