<svg width="40" height="40" viewBox="0 0 40 40" fill="none" xmlns="http://www.w3.org/2000/svg">
<path d="M2.93578 8.37622C2.9451 7.75696 3.44503 7.25703 4.06429 7.24771H36.0368C36.6546 7.26025 37.1527 7.75803 37.1653 8.37622V15.2294H35.5139C34.8359 15.2251 34.1843 15.4906 33.7023 15.9673C33.2207 16.4439 32.948 17.0929 32.9451 17.7706V18.2569H7.06422V17.7706C7.06099 17.0929 6.78863 16.4439 6.30662 15.9673C5.82497 15.4906 5.17309 15.2251 4.49541 15.2294H2.93578V8.37622ZM7.06422 19.7248H32.9358V23.1193H7.06422V19.7248ZM6.42202 32.7523H1.83486V31.7431H6.42202V32.7523ZM38.0734 32.7523H33.4862V31.7431H38.0734V32.7523ZM40 30.2752H0V17.7706C0.00179185 17.4817 0.119338 17.2058 0.326477 17.004C0.533257 16.8023 0.81207 16.6919 1.10092 16.6973H4.49541C4.78426 16.6919 5.06307 16.8023 5.26985 17.004C5.47699 17.2058 5.59454 17.4817 5.59633 17.7706V23.8256C5.59526 24.236 5.9203 24.5728 6.33028 24.5872H33.6697C34.0797 24.5728 34.4047 24.236 34.4037 23.8256V17.7706C34.4055 17.4817 34.523 17.2058 34.7301 17.004C34.9369 16.8023 35.2157 16.6919 35.5046 16.6973H38.8991C39.1879 16.6919 39.4667 16.8023 39.6735 17.004C39.8807 17.2058 39.9982 17.4817 40 17.7706V30.2752Z" fill="#F3F3F3"/>
</svg>
