<svg width="40" height="40" viewBox="0 0 40 40" fill="none" xmlns="http://www.w3.org/2000/svg">
<path d="M39.6367 1.15406L39.4561 0.543906L38.8459 0.363203C38.7327 0.329609 36.021 -0.449608 31.7597 0.383047C29.3039 0.86289 26.8139 1.7814 24.359 3.11304C21.322 4.76046 18.3281 7.04983 15.4604 9.91748C9.27389 16.104 5.48561 22.2551 3.3971 26.3259C1.1189 30.7663 0.317265 33.7237 0.284218 33.8474L0 34.9127L3.81562 36.1842L5.08718 39.9999L6.15257 39.7157C6.27624 39.6827 9.23365 38.881 13.674 36.6028C17.7448 34.5142 23.8958 30.726 30.0824 24.5395C32.95 21.6718 35.2394 18.6779 36.8869 15.6409C38.2186 13.1859 39.1371 10.696 39.6168 8.24022C40.4495 3.97906 39.6704 1.26742 39.6367 1.15406ZM15.2862 33.0468C14.3454 33.5952 13.4695 34.0718 12.677 34.4799C9.95436 35.8819 7.79803 36.706 6.59749 37.1178L5.66874 34.3312L2.8821 33.4025C3.29421 32.2017 4.11827 30.0453 5.52007 27.3231C5.92819 26.5306 6.40483 25.6546 6.95311 24.7139H15.2862V33.0468V33.0468ZM17.6302 31.6086V22.3698H8.39131C9.14795 21.1959 10.0029 19.9546 10.9667 18.6679V18.6726H21.3273V29.0331H21.332C20.0454 29.997 18.804 30.852 17.6302 31.6086ZM37.2845 7.95131C36.8345 10.1574 35.9878 12.4046 34.7681 14.6306C33.2328 17.4322 31.0987 20.2086 28.4249 22.8822C26.8243 24.4828 25.2273 25.9152 23.6712 27.1951V16.3286H12.8048C14.0848 14.7726 15.5171 13.1755 17.1177 11.5749C19.7914 8.90123 22.5677 6.7671 25.3693 5.23179C27.5953 4.01202 29.8424 3.16531 32.0485 2.71546C33.6344 2.39203 34.9727 2.32296 35.9913 2.35109L31.8404 6.50194L33.4978 8.15936L37.6487 4.00851C37.677 5.02726 37.6079 6.36553 37.2845 7.95131Z" fill="#F3F3F3"/>
</svg>
