<svg width="68" height="68" viewBox="0 0 68 68" fill="none" xmlns="http://www.w3.org/2000/svg">
<circle cx="34" cy="34" r="34" fill="url(#paint0_linear)"/>
<path d="M53.6367 15.1541L53.4561 14.5439L52.8459 14.3632C52.7327 14.3296 50.021 13.5504 45.7597 14.383C43.3039 14.8629 40.8139 15.7814 38.359 17.113C35.322 18.7605 32.3281 21.0498 29.4604 23.9175C23.2739 30.104 19.4856 36.2551 17.3971 40.3259C15.1189 44.7663 14.3173 47.7237 14.2842 47.8474L14 48.9127L17.8156 50.1842L19.0872 53.9999L20.1526 53.7157C20.2762 53.6827 23.2337 52.881 27.674 50.6028C31.7448 48.5142 37.8958 44.726 44.0824 38.5395C46.95 35.6718 49.2394 32.6779 50.8869 29.6409C52.2186 27.1859 53.1371 24.696 53.6168 22.2402C54.4495 17.9791 53.6704 15.2674 53.6367 15.1541ZM29.2862 47.0468C28.3454 47.5952 27.4695 48.0718 26.677 48.4799C23.9544 49.8819 21.798 50.706 20.5975 51.1178L19.6687 48.3312L16.8821 47.4025C17.2942 46.2017 18.1183 44.0453 19.5201 41.3231C19.9282 40.5306 20.4048 39.6546 20.9531 38.7139H29.2862V47.0468V47.0468ZM31.6302 45.6086V36.3698H22.3913C23.148 35.1959 24.0029 33.9546 24.9667 32.6679V32.6726H35.3273V43.0331H35.332C34.0454 43.997 32.804 44.852 31.6302 45.6086ZM51.2845 21.9513C50.8345 24.1574 49.9878 26.4046 48.7681 28.6306C47.2328 31.4322 45.0987 34.2086 42.4249 36.8822C40.8243 38.4828 39.2273 39.9152 37.6712 41.1951V30.3286H26.8048C28.0848 28.7726 29.5171 27.1755 31.1177 25.5749C33.7914 22.9012 36.5677 20.7671 39.3693 19.2318C41.5953 18.012 43.8424 17.1653 46.0485 16.7155C47.6344 16.392 48.9727 16.323 49.9913 16.3511L45.8404 20.5019L47.4978 22.1594L51.6487 18.0085C51.677 19.0273 51.6079 20.3655 51.2845 21.9513Z" fill="white"/>
<defs>
<linearGradient id="paint0_linear" x1="34" y1="0" x2="34" y2="68" gradientUnits="userSpaceOnUse">
<stop stop-color="#170C9E"/>
<stop offset="1" stop-color="#E633EA"/>
</linearGradient>
</defs>
</svg>
