<svg width="60" height="60" viewBox="0 0 60 60" fill="none" xmlns="http://www.w3.org/2000/svg">
<g clip-path="url(#clip0)">
<path d="M60 23.5634C60 22.6739 59.3271 22.1211 57.9803 21.9045L39.8799 19.2727L31.7671 2.86617C31.3106 1.88055 30.7212 1.388 30.0002 1.388C29.2793 1.388 28.6902 1.88055 28.2334 2.86617L20.1202 19.2727L2.01897 21.9045C0.673157 22.1211 0 22.6739 0 23.5634C0 24.0685 0.300584 24.6454 0.901626 25.2944L14.0268 38.0589L10.9259 56.0875C10.8777 56.4242 10.8539 56.6653 10.8539 56.8089C10.8539 57.3137 10.9799 57.7402 11.2322 58.089C11.4845 58.4383 11.8628 58.6121 12.3679 58.6121C12.8008 58.6121 13.2814 58.4685 13.8102 58.1798L29.9998 49.6692L46.1906 58.1798C46.6962 58.4685 47.1769 58.6121 47.6324 58.6121C48.1147 58.6121 48.4804 58.4383 48.7328 58.089C48.9844 57.7407 49.1105 57.3137 49.1105 56.8089C49.1105 56.4968 49.0984 56.2565 49.0743 56.0875L45.9731 38.0589L59.062 25.2944C59.6879 24.6694 60 24.0922 60 23.5634Z" fill="#F3F3F3"/>
</g>
<defs>
<clipPath id="clip0">
<rect width="60" height="60" fill="white"/>
</clipPath>
</defs>
</svg>
